<svg xmlns="http://www.w3.org/2000/svg" viewBox="0 0 512 512">
  <defs>
    <linearGradient id="grad" x1="0%" y1="0%" x2="100%" y2="100%">
      <stop offset="0%" style="stop-color:#667eea"/>
      <stop offset="100%" style="stop-color:#764ba2"/>
    </linearGradient>
  </defs>
  <rect width="512" height="512" rx="100" fill="white"/>
  <g transform="translate(96, 120)" fill="none" stroke="url(#grad)" stroke-width="20" stroke-linecap="round" stroke-linejoin="round">
    <!-- Book -->
    <path d="M20 280 L160 240 L300 280" />
    <path d="M20 280 L20 80 C20 80 80 60 160 80 L160 240" />
    <path d="M300 280 L300 80 C300 80 240 60 160 80" />
    <!-- Lightbulb -->
    <circle cx="160" cy="40" r="35" />
    <path d="M140 75 L140 95 L180 95 L180 75" />
    <path d="M145 95 L145 105 L175 105 L175 95" />
    <!-- Sparkles -->
    <path d="M230 20 L240 30 M250 10 L250 30 M260 20 L250 30" stroke-width="10"/>
    <circle cx="80" cy="30" r="5" fill="url(#grad)"/>
  </g>
</svg>
